<?xml version="1.0" standalone="no"?>
<!DOCTYPE svg PUBLIC "-//W3C//DTD SVG 20010904//EN"
 "http://www.w3.org/TR/2001/REC-SVG-20010904/DTD/svg10.dtd">
<svg version="1.0" xmlns="http://www.w3.org/2000/svg"
 width="304.000000pt" height="300.000000pt" viewBox="0 0 304.000000 300.000000"
 preserveAspectRatio="xMidYMid meet">

<g transform="translate(0.000000,300.000000) scale(0.100000,-0.100000)"
fill="#000000" stroke="none">
<path d="M1340 2889 c-454 -50 -876 -344 -1083 -756 -97 -191 -147 -408 -147
-633 0 -622 434 -1179 1037 -1331 531 -134 1071 41 1425 461 143 170 255 420
293 655 19 116 19 348 0 456 -67 384 -291 727 -610 932 -270 173 -601 251
-915 216z m587 -400 c9 -9 8 -15 -3 -26 -12 -13 -16 -13 -28 0 -11 11 -12 17
-3 26 6 6 14 11 17 11 3 0 11 -5 17 -11z m-917 -44 c-11 -14 -14 -14 -25 2
-18 24 3 48 24 28 12 -12 12 -17 1 -30z m285 -55 c-5 -8 -11 -8 -17 -2 -6 6
-7 16 -3 22 5 8 11 8 17 2 6 -6 7 -16 3 -22z m963 -252 c27 -11 27 -12 4 -16
-13 -2 -32 -17 -42 -34 -17 -29 -18 -29 -25 -8 -4 12 -21 28 -38 35 l-32 13
28 11 c15 6 33 22 39 36 l12 26 13 -26 c8 -14 26 -31 41 -37z m-1331 -26 l28
-10 -29 -7 c-18 -5 -33 -18 -41 -38 l-12 -29 -11 29 c-7 21 -19 33 -39 38
l-28 7 31 13 c21 8 34 23 38 41 l8 29 13 -31 c8 -19 24 -36 42 -42z m743 -42
c0 -6 -11 -28 -24 -49 -66 -104 -86 -293 -45 -425 52 -171 190 -312 352 -362
98 -30 96 -23 28 -91 -103 -104 -228 -153 -387 -153 -414 0 -672 432 -478 801
66 126 205 235 345 273 63 17 209 21 209 6z m971 -483 l24 -9 -23 -9 c-13 -5
-29 -23 -37 -41 -14 -34 -14 -34 -30 17 -2 8 -19 18 -37 23 l-33 10 32 12 c21
7 35 22 43 43 l12 32 12 -34 c7 -20 22 -38 37 -44z m-344 -18 c9 -9 8 -15 -3
-26 -12 -13 -16 -13 -28 0 -11 11 -12 17 -3 26 6 6 14 11 17 11 3 0 11 -5 17
-11z m-1822 -135 c33 -8 32 -17 -5 -31 -20 -7 -30 -18 -30 -32 0 -31 -19 -35
-26 -5 -4 16 -18 31 -38 39 l-31 13 28 11 c18 7 33 23 40 42 l12 31 12 -31 c8
-19 23 -33 38 -37z m229 -86 c12 -11 12 -16 -1 -30 -15 -17 -17 -17 -28 -1 -9
12 -9 20 -1 29 14 17 14 17 30 2z m1496 -505 c23 -6 27 -23 5 -23 -8 0 -24
-14 -34 -31 l-19 -30 -6 25 c-4 16 -16 28 -31 32 -30 8 -32 20 -4 27 11 3 25
19 32 36 l11 30 13 -30 c7 -17 22 -33 33 -36z m-1162 -150 c-7 -9 -15 -10 -30
-2 -19 10 -19 11 -2 23 22 17 48 -1 32 -21z m262 -48 c5 -14 22 -30 37 -36
l28 -11 -31 -13 c-17 -7 -34 -23 -38 -36 l-7 -24 -11 28 c-5 16 -20 30 -34 33
-29 8 -32 24 -3 24 14 0 24 10 32 30 14 36 15 37 27 5z m749 -71 c-9 -11 -15
-12 -25 -3 -11 9 -12 15 -3 25 9 11 15 12 25 3 11 -9 12 -15 3 -25z"/>
</g>
</svg>
